<?xml version="1.0" encoding="UTF-8"?>
<svg version="1.1" xmlns="http://www.w3.org/2000/svg" width="128" height="128">
<path d="M0 0 C39.6 0 79.2 0 120 0 C120 22.44 120 44.88 120 68 C80.4 68 40.8 68 0 68 C0 45.56 0 23.12 0 0 Z M4 4 C4 7.63 4 11.26 4 15 C9.17582922 14.05929657 9.17582922 14.05929657 12.3125 10.625 C12.82425781 10.01914062 13.33601563 9.41328125 13.86328125 8.7890625 C15.26813957 6.931253 15.26813957 6.931253 15 4 C11.37 4 7.74 4 4 4 Z M20 4 C19.01 6.64 18.02 9.28 17 12 C12.9921321 17.15297301 10.6908119 17.49094554 4 20 C4 29.24 4 38.48 4 48 C6.64 48.99 9.28 49.98 12 51 C17.15297301 55.0078679 17.49094554 57.3091881 20 64 C46.4 64 72.8 64 100 64 C100.99 61.36 101.98 58.72 103 56 C107.0078679 50.84702699 109.3091881 50.50905446 116 48 C116 38.76 116 29.52 116 20 C113.36 19.01 110.72 18.02 108 17 C102.84702699 12.9921321 102.50905446 10.6908119 100 4 C73.6 4 47.2 4 20 4 Z M105 4 C105.94070343 9.17582922 105.94070343 9.17582922 109.375 12.3125 C109.98085937 12.82425781 110.58671875 13.33601563 111.2109375 13.86328125 C113.068747 15.26813957 113.068747 15.26813957 116 15 C116 11.37 116 7.74 116 4 C112.37 4 108.74 4 105 4 Z M4 53 C4 56.63 4 60.26 4 64 C7.63 64 11.26 64 15 64 C14.05929657 58.82417078 14.05929657 58.82417078 10.625 55.6875 C10.01914063 55.17574219 9.41328125 54.66398437 8.7890625 54.13671875 C6.931253 52.73186043 6.931253 52.73186043 4 53 Z M109.375 55.6875 C108.76398438 56.18636719 108.15296875 56.68523437 107.5234375 57.19921875 C105.52821571 59.26331712 105.52821571 59.26331712 105 64 C108.63 64 112.26 64 116 64 C116 60.37 116 56.74 116 53 C112.52489499 53 111.94636834 53.51551441 109.375 55.6875 Z " fill="#57ef4f" transform="translate(4,52)"/>
<path d="M0 0 C5.9615096 3.14172666 11.2987379 8.94920417 13.62109375 15.33203125 C15.33983758 23.77364919 14.99028787 31.87018222 10.61328125 39.37890625 C6.77290447 44.63161304 1.54802679 49.09710236 -4.9375 50.5 C-13.95106222 51.48929341 -21.50486393 50.99829585 -28.9375 45.5 C-34.59778625 40.36674226 -37.54807341 35.65690246 -38.2734375 27.9140625 C-38.36094767 19.42557588 -38.19384613 13.38814751 -32.4375 6.77734375 C-31.9425 6.35582031 -31.4475 5.93429688 -30.9375 5.5 C-28.75 5.8125 -28.75 5.8125 -26.9375 6.5 C-27.54117681 9.39764867 -28.46286837 11.48769884 -30 14 C-33.02265015 19.93458052 -33.04909938 26.50745074 -31.27734375 32.87109375 C-29.08160049 37.89944087 -25.72600469 40.91131881 -20.9375 43.5 C-14.81686017 45.54021328 -7.44701962 45.59323014 -1.5 42.9375 C3.39872999 40.07990751 6.29346527 35.8071042 8.0625 30.5 C8.72384489 23.18183934 8.80340673 16.45369682 4.0625 10.5 C-0.88739981 6.00009108 -5.0907968 4.35823765 -11.8125 4.375 C-12.84117188 4.37242188 -13.86984375 4.36984375 -14.9296875 4.3671875 C-17.712148 4.49004939 -20.22989874 4.87055764 -22.9375 5.5 C-23.2675 3.85 -23.5975 2.2 -23.9375 0.5 C-16.71181285 -2.89552968 -7.43731853 -2.8930017 0 0 Z " fill="#57ef4f" transform="translate(75.9375,61.5)"/>
<path d="M0 0 C4.68796317 2.8950501 8.77605467 6.42344712 10.234375 11.89453125 C11.16656452 18.74158704 11.3930195 24.99387098 7.671875 31.01953125 C3.66347868 35.99068326 0.31000422 38.47580101 -6.0078125 39.3359375 C-13.1275177 39.69575056 -18.34453314 39.19135672 -23.98828125 34.640625 C-29.08369757 29.63479842 -30.03494232 26.05750776 -30.390625 19.01953125 C-30.17838344 12.13997715 -28.58962241 7.80486419 -23.765625 2.89453125 C-17.29271618 -2.6344117 -7.84970384 -3.13766411 0 0 Z M-23.140625 10.51953125 C-25.34470393 15.09723364 -25.5627889 18.90005536 -24.765625 23.89453125 C-22.43593569 28.73311673 -19.60421048 31.56484194 -14.765625 33.89453125 C-9.77114911 34.69169515 -5.96832739 34.47361018 -1.390625 32.26953125 C2.19345213 29.0267948 4.82972741 26.42977229 5.6171875 21.49609375 C5.87321419 15.81230131 5.17064432 12.2451447 1.234375 7.89453125 C-3.11623845 3.95826193 -6.68339506 3.25569206 -12.3671875 3.51171875 C-17.30086604 4.29917884 -19.89788855 6.93545412 -23.140625 10.51953125 Z " fill="#57ef4f" transform="translate(73.765625,9.10546875)"/>
<path d="M0 0 C1.32 0 2.64 0 4 0 C4 1.32 4 2.64 4 4 C4.763125 4.103125 5.52625 4.20625 6.3125 4.3125 C9.21655911 5.05539884 10.28995766 5.56993983 12 8 C12 9.32 12 10.64 12 12 C10.35 12 8.7 12 7 12 C7 11.34 7 10.68 7 10 C6.34 10 5.68 10 5 10 C4.67 11.98 4.34 13.96 4 16 C4.763125 16.103125 5.52625 16.20625 6.3125 16.3125 C10.3772242 17.35231317 10.3772242 17.35231317 12 20 C12.64336438 25.06649451 12.64336438 25.06649451 12 28 C9.6875 30.5 9.6875 30.5 7 32 C6.01 32 5.02 32 4 32 C4 33.32 4 34.64 4 36 C2.68 36 1.36 36 0 36 C0 34.68 0 33.36 0 32 C-0.763125 31.896875 -1.52625 31.79375 -2.3125 31.6875 C-5.21655911 30.94460116 -6.28995766 30.43006017 -8 28 C-8 26.68 -8 25.36 -8 24 C-6.35 24 -4.7 24 -3 24 C-3 24.66 -3 25.32 -3 26 C-2.34 26 -1.68 26 -1 26 C-0.67 24.02 -0.34 22.04 0 20 C-0.763125 19.896875 -1.52625 19.79375 -2.3125 19.6875 C-6.3772242 18.64768683 -6.3772242 18.64768683 -8 16 C-8.64336438 10.93350549 -8.64336438 10.93350549 -8 8 C-5.6875 5.5 -5.6875 5.5 -3 4 C-2.01 4 -1.02 4 0 4 C0 2.68 0 1.36 0 0 Z M-3 10 C-3 11.32 -3 12.64 -3 14 C-2.01 14.33 -1.02 14.66 0 15 C0 13.02 0 11.04 0 9 C-1.2236068 8.9254644 -1.2236068 8.9254644 -3 10 Z M4 21 C4 22.98 4 24.96 4 27 C4.99 26.67 5.98 26.34 7 26 C7 24.68 7 23.36 7 22 C6.01 21.67 5.02 21.34 4 21 Z " fill="#57ef4f" transform="translate(62,68)"/>
<path d="M0 0 C-0.39758746 4.93369898 -2.87194769 7.54104759 -6.25 10.875 C-6.72824219 11.38546875 -7.20648438 11.8959375 -7.69921875 12.421875 C-9.140625 13.8671875 -9.140625 13.8671875 -12 16 C-15.28025319 15.91601059 -16.45541093 15.52581014 -18.8125 13.25 C-20.19608294 10.62847443 -20.24360427 8.92325122 -20 6 C-15.25 6.75 -15.25 6.75 -13 9 C-12.39671875 8.3503125 -11.7934375 7.700625 -11.171875 7.03125 C-10.37265625 6.1959375 -9.5734375 5.360625 -8.75 4.5 C-7.96109375 3.6646875 -7.1721875 2.829375 -6.359375 1.96875 C-4 0 -4 0 0 0 Z " fill="#57ef4f" transform="translate(74,20)"/>
<path d="M0 0 C2.64 0 5.28 0 8 0 C8 1.32 8 2.64 8 4 C5.36 4 2.72 4 0 4 C0 2.68 0 1.36 0 0 Z " fill="#57ef4f" transform="translate(102,84)"/>
<path d="M0 0 C2.64 0 5.28 0 8 0 C8 1.32 8 2.64 8 4 C5.36 4 2.72 4 0 4 C0 2.68 0 1.36 0 0 Z " fill="#57ef4f" transform="translate(18,84)"/>
</svg>
