<?xml version="1.0" encoding="UTF-8"?>
<svg version="1.1" xmlns="http://www.w3.org/2000/svg" width="128" height="128">
<path d="M0 0 C2.79285968 2.79285968 2.31027386 5.40065155 2.32226562 9.14013672 C2.33716034 10.24284409 2.33716034 10.24284409 2.35235596 11.36782837 C2.38161883 13.80515252 2.39520568 16.24221638 2.40625 18.6796875 C2.41775127 20.3711854 2.42926675 22.0626832 2.4407959 23.75418091 C2.46182138 27.30341814 2.47350303 30.8525647 2.48046875 34.40185547 C2.49144072 38.95095778 2.53949431 43.49886342 2.59641266 48.04759026 C2.63365372 51.54260766 2.64407582 55.03733648 2.6471405 58.53253555 C2.65319747 60.20953033 2.66926843 61.88651979 2.69551086 63.56332016 C2.72961784 65.91016472 2.72588236 68.2540826 2.71289062 70.60107422 C2.74053497 71.64077362 2.74053497 71.64077362 2.76873779 72.70147705 C2.73498535 74.64718628 2.73498535 74.64718628 2 78 C-9.30480763 87.4713123 -28.00547467 86.69383819 -42 86 C-47.532712 85.41176783 -53.01078151 84.55547682 -58.48046875 83.5390625 C-63.96382456 82.66560759 -67.96748973 83.69752466 -73.25390625 85.28125 C-82.18106488 87.61780361 -90.64431543 85.54959533 -99 82 C-107.48556009 76.99731905 -113.91181601 69.35978153 -117.30078125 60.09375 C-119.85869898 48.77603578 -119.06482215 37.03620315 -113 27 C-107.69651679 19.08515704 -99.34499775 13.14156199 -90 11 C-82.62716281 9.65115057 -76.27385175 10.32673753 -69 12 C-69.04640625 11.39671875 -69.0928125 10.7934375 -69.140625 10.171875 C-69.43226312 3.71417384 -69.43226312 3.71417384 -67.5625 0.625 C-50.82633558 -9.98817744 -17.18642479 -9.26257841 0 0 Z M-51.25 0.3125 C-51.9524585 0.43012695 -52.65491699 0.54775391 -53.37866211 0.66894531 C-57.4676011 1.44495558 -60.57749538 2.63210436 -64 5 C-61.67362927 7.69527741 -59.71643131 8.6524482 -56.3125 9.625 C-55.10013672 9.98464844 -55.10013672 9.98464844 -53.86328125 10.3515625 C-39.45122308 13.61541196 -18.35781276 14.64596955 -5.0546875 7.39453125 C-4.37664062 6.93433594 -3.69859375 6.47414063 -3 6 C-5.42948387 3.11044776 -7.56528342 2.30482146 -11.1875 1.375 C-12.08855469 1.13523437 -12.98960938 0.89546875 -13.91796875 0.6484375 C-26.22522157 -1.94092114 -38.8909666 -1.808736 -51.25 0.3125 Z M-104.04296875 24.8203125 C-110.60933196 31.73669507 -113.18939916 38.89826165 -113.625 48.375 C-113.35175528 57.70300952 -109.9911258 65.04409502 -103.75 71.9375 C-96.89396112 78.16887756 -88.47414891 81.38461746 -79.234375 81.2109375 C-70.38833269 80.37582162 -62.28040979 76.59816947 -56.2109375 70.078125 C-50.12025846 62.33726198 -47.06180017 53.93796852 -48 44 C-49.79834235 34.55108256 -53.94526574 27.00498916 -61.625 21.125 C-75.66983259 11.93938111 -91.73378055 13.85266106 -104.04296875 24.8203125 Z M-6.921875 29.42578125 C-12.00915801 31.13595287 -16.91901704 31.76007809 -22.25 32.1875 C-23.16225342 32.26790527 -24.07450684 32.34831055 -25.0144043 32.43115234 C-32.04067811 33.01351912 -38.94792022 33.16992963 -46 33 C-45.01 37.29 -44.02 41.58 -43 46 C-22.11059505 47.02367034 -22.11059505 47.02367034 -3 40 C-1.71387324 38.94021067 -1.71387324 38.94021067 -1.90234375 36.49609375 C-1.91394531 35.48675781 -1.92554688 34.47742187 -1.9375 33.4375 C-1.94652344 32.42558594 -1.95554688 31.41367187 -1.96484375 30.37109375 C-1.97644531 29.58863281 -1.98804688 28.80617187 -2 28 C-3.73217339 28 -5.30850768 28.83507834 -6.921875 29.42578125 Z M-9.3828125 65.24609375 C-14.87970502 66.82952697 -20.27417247 67.10037979 -25.96484375 67 C-27.94523207 67.00197152 -29.92562126 67.00398674 -31.90600586 67.00830078 C-33.25867938 67.00277369 -34.61137109 66.9829482 -35.96362305 66.94873047 C-44.36373664 66.62859169 -44.36373664 66.62859169 -51.72314453 70.0703125 C-53.70079857 72.29218047 -55.41388049 74.48708411 -57 77 C-51.94648182 82.05351818 -40.05407222 81.16901939 -33.1875 81.3125 C-27.33990387 81.28811111 -21.64292724 80.69594258 -15.875 79.75 C-15.17656982 79.64083252 -14.47813965 79.53166504 -13.75854492 79.41918945 C-9.05493573 78.55068188 -5.58834004 77.18963559 -2 74 C-1.27895185 71.195223 -1.27895185 71.195223 -1.625 68.25 C-1.67914063 67.26515625 -1.73328125 66.2803125 -1.7890625 65.265625 C-1.89347656 64.14414063 -1.89347656 64.14414063 -2 63 C-4.46998098 63 -7.07946446 64.42119229 -9.3828125 65.24609375 Z " fill="#57ef4f" transform="translate(122,24)"/>
<path d="M0 0 C6.2487756 5.22270407 10.96347462 11.48006683 11.7421875 19.8671875 C11.97762802 29.37154943 10.39446274 36.52713426 3.87890625 43.67578125 C-1.96394824 49.01103101 -8.16350309 51.46261468 -16.05859375 51.73828125 C-25.06467909 51.32027729 -30.98646109 48.71666723 -37.546875 42.48828125 C-42.89614491 36.48509257 -44.90939609 29.60071861 -44.7734375 21.609375 C-43.83514144 13.79905147 -40.53988645 6.41271164 -34.49609375 1.30078125 C-23.95971016 -5.84757793 -10.94449664 -7.45047894 0 0 Z M-35.49609375 10.30078125 C-39.04188343 16.09061864 -40.09664761 21.35581676 -39.0390625 28.046875 C-37.31772356 35.19228917 -33.22595433 39.29516939 -27.43359375 43.55078125 C-22.38925702 46.55591803 -17.28210117 47.09387884 -11.49609375 46.30078125 C-3.31323207 43.48412856 1.13662724 39.54555741 5.31640625 32.05078125 C7.46915551 25.25262571 7.42654091 19.61683548 4.50390625 13.05078125 C1.1565262 7.01980756 -3.34882145 3.71384228 -9.55859375 0.92578125 C-20.06448471 -1.3095147 -28.61502332 2.21970074 -35.49609375 10.30078125 Z " fill="#57ef4f" transform="translate(57.49609375,48.69921875)"/>
<path d="M0 0 C1.65 0.33 3.3 0.66 5 1 C5.061875 1.598125 5.12375 2.19625 5.1875 2.8125 C5.83666493 5.26743306 5.83666493 5.26743306 8.5625 6.5 C9.366875 6.995 10.17125 7.49 11 8 C11 9.32 11 10.64 11 12 C7.04 11.67 3.08 11.34 -1 11 C-1.33 12.65 -1.66 14.3 -2 16 C-1.16855469 16.17015625 -0.33710937 16.3403125 0.51953125 16.515625 C1.60621094 16.75796875 2.69289063 17.0003125 3.8125 17.25 C4.89144531 17.48203125 5.97039063 17.7140625 7.08203125 17.953125 C10.34861415 19.12507174 11.34256594 20.00191109 13 23 C13.53144342 26.05579965 13.58786697 28.00895989 11.98046875 30.71875 C10.6875 32.375 10.6875 32.375 8 35 C7.01 35 6.02 35 5 35 C4.505 37.475 4.505 37.475 4 40 C2.68 40 1.36 40 0 40 C0 38.35 0 36.7 0 35 C-1.1446875 34.814375 -1.1446875 34.814375 -2.3125 34.625 C-5 34 -5 34 -8 32 C-8.1875 29.375 -8.1875 29.375 -8 27 C-3.25 27.875 -3.25 27.875 -1 29 C1.3329866 29.04022391 3.66706666 29.04320247 6 29 C6.59070014 27.05396726 6.59070014 27.05396726 7 25 C4.9896446 22.9896446 1.26754198 23.13800534 -1.45703125 22.6953125 C-4.31695103 21.91333751 -5.90348314 21.09651686 -8 19 C-8.76334535 15.95223143 -8.55707071 13.08060105 -8 10 C-6.08956046 7.27080066 -4.8864184 6.2954728 -1.75 5.25 C-0.88375 5.12625 -0.88375 5.12625 0 5 C0 3.35 0 1.7 0 0 Z " fill="#57ef4f" transform="translate(39,52)"/>
</svg>
