<?xml version="1.0" encoding="UTF-8"?>
<svg version="1.1" xmlns="http://www.w3.org/2000/svg" width="128" height="128">
<path d="M0 0 C22.44 0 44.88 0 68 0 C68 15.18 68 30.36 68 46 C75.92 46 83.84 46 92 46 C92 68.44 92 90.88 92 114 C93.32 114 94.64 114 96 114 C96 117.3 96 120.6 96 124 C55.08 124 14.16 124 -28 124 C-28 120.7 -28 117.4 -28 114 C-26.68 114 -25.36 114 -24 114 C-24 84.96 -24 55.92 -24 26 C-16.08 26 -8.16 26 0 26 C0 17.42 0 8.84 0 0 Z M4 4 C4 40.3 4 76.6 4 114 C8.62 114 13.24 114 18 114 C18 103.44 18 92.88 18 82 C28.56 82 39.12 82 50 82 C50 92.56 50 103.12 50 114 C54.62 114 59.24 114 64 114 C64 77.7 64 41.4 64 4 C44.2 4 24.4 4 4 4 Z M-20 30 C-20 57.72 -20 85.44 -20 114 C-13.4 114 -6.8 114 0 114 C0 86.28 0 58.56 0 30 C-6.6 30 -13.2 30 -20 30 Z M68 50 C68 71.12 68 92.24 68 114 C74.6 114 81.2 114 88 114 C88 92.88 88 71.76 88 50 C81.4 50 74.8 50 68 50 Z M22 86 C22 95.24 22 104.48 22 114 C25.3 114 28.6 114 32 114 C32 104.76 32 95.52 32 86 C28.7 86 25.4 86 22 86 Z M36 86 C36 95.24 36 104.48 36 114 C39.3 114 42.6 114 46 114 C46 104.76 46 95.52 46 86 C42.7 86 39.4 86 36 86 Z M-24 118 C-24 118.66 -24 119.32 -24 120 C14.28 120 52.56 120 92 120 C92 119.34 92 118.68 92 118 C53.72 118 15.44 118 -24 118 Z " fill="#fff" transform="translate(30,2)"/>
<path d="M0 0 C17.16 0 34.32 0 52 0 C52 6.6 52 13.2 52 20 C34.84 20 17.68 20 0 20 C0 13.4 0 6.8 0 0 Z M4 4 C4 7.96 4 11.92 4 16 C6.64 16 9.28 16 12 16 C12 12.04 12 8.08 12 4 C9.36 4 6.72 4 4 4 Z M16 4 C16 7.96 16 11.92 16 16 C18.64 16 21.28 16 24 16 C24 12.04 24 8.08 24 4 C21.36 4 18.72 4 16 4 Z M28 4 C28 7.96 28 11.92 28 16 C30.64 16 33.28 16 36 16 C36 12.04 36 8.08 36 4 C33.36 4 30.72 4 28 4 Z M40 4 C40 7.96 40 11.92 40 16 C42.64 16 45.28 16 48 16 C48 12.04 48 8.08 48 4 C45.36 4 42.72 4 40 4 Z " fill="#fff" transform="translate(38,58)"/>
<path d="M0 0 C17.16 0 34.32 0 52 0 C52 6.6 52 13.2 52 20 C34.84 20 17.68 20 0 20 C0 13.4 0 6.8 0 0 Z M4 4 C4 7.96 4 11.92 4 16 C6.64 16 9.28 16 12 16 C12 12.04 12 8.08 12 4 C9.36 4 6.72 4 4 4 Z M16 4 C16 7.96 16 11.92 16 16 C18.64 16 21.28 16 24 16 C24 12.04 24 8.08 24 4 C21.36 4 18.72 4 16 4 Z M28 4 C28 7.96 28 11.92 28 16 C30.64 16 33.28 16 36 16 C36 12.04 36 8.08 36 4 C33.36 4 30.72 4 28 4 Z M40 4 C40 7.96 40 11.92 40 16 C42.64 16 45.28 16 48 16 C48 12.04 48 8.08 48 4 C45.36 4 42.72 4 40 4 Z " fill="#fff" transform="translate(38,34)"/>
<path d="M0 0 C17.16 0 34.32 0 52 0 C52 6.6 52 13.2 52 20 C34.84 20 17.68 20 0 20 C0 13.4 0 6.8 0 0 Z M4 4 C4 7.96 4 11.92 4 16 C6.64 16 9.28 16 12 16 C12 12.04 12 8.08 12 4 C9.36 4 6.72 4 4 4 Z M16 4 C16 7.96 16 11.92 16 16 C18.64 16 21.28 16 24 16 C24 12.04 24 8.08 24 4 C21.36 4 18.72 4 16 4 Z M28 4 C28 7.96 28 11.92 28 16 C30.64 16 33.28 16 36 16 C36 12.04 36 8.08 36 4 C33.36 4 30.72 4 28 4 Z M40 4 C40 7.96 40 11.92 40 16 C42.64 16 45.28 16 48 16 C48 12.04 48 8.08 48 4 C45.36 4 42.72 4 40 4 Z " fill="#fff" transform="translate(38,10)"/>
<path d="M0 0 C5.28 0 10.56 0 16 0 C16 5.28 16 10.56 16 16 C10.72 16 5.44 16 0 16 C0 10.72 0 5.44 0 0 Z M4 4 C4 6.64 4 9.28 4 12 C6.64 12 9.28 12 12 12 C12 9.36 12 6.72 12 4 C9.36 4 6.72 4 4 4 Z " fill="#fff" transform="translate(100,74)"/>
<path d="M0 0 C5.28 0 10.56 0 16 0 C16 5.28 16 10.56 16 16 C10.72 16 5.44 16 0 16 C0 10.72 0 5.44 0 0 Z M4 4 C4 6.64 4 9.28 4 12 C6.64 12 9.28 12 12 12 C12 9.36 12 6.72 12 4 C9.36 4 6.72 4 4 4 Z " fill="#fff" transform="translate(12,74)"/>
<path d="M0 0 C5.28 0 10.56 0 16 0 C16 5.28 16 10.56 16 16 C10.72 16 5.44 16 0 16 C0 10.72 0 5.44 0 0 Z M4 4 C4 6.64 4 9.28 4 12 C6.64 12 9.28 12 12 12 C12 9.36 12 6.72 12 4 C9.36 4 6.72 4 4 4 Z " fill="#fff" transform="translate(100,54)"/>
<path d="M0 0 C5.28 0 10.56 0 16 0 C16 5.28 16 10.56 16 16 C10.72 16 5.44 16 0 16 C0 10.72 0 5.44 0 0 Z M4 4 C4 6.64 4 9.28 4 12 C6.64 12 9.28 12 12 12 C12 9.36 12 6.72 12 4 C9.36 4 6.72 4 4 4 Z " fill="#fff" transform="translate(12,54)"/>
<path d="M0 0 C5.28 0 10.56 0 16 0 C16 5.28 16 10.56 16 16 C10.72 16 5.44 16 0 16 C0 10.72 0 5.44 0 0 Z M4 4 C4 6.64 4 9.28 4 12 C6.64 12 9.28 12 12 12 C12 9.36 12 6.72 12 4 C9.36 4 6.72 4 4 4 Z " fill="#fff" transform="translate(12,34)"/>
</svg>
