<?xml version="1.0" encoding="UTF-8"?>
<svg version="1.1" xmlns="http://www.w3.org/2000/svg" width="128" height="128">
<path d="M0 0 C6.2099102 0.53083357 11.26190764 2.56351295 16.9375 5.0625 C17.81212891 5.43955078 18.68675781 5.81660156 19.58789062 6.20507812 C21.72864676 7.12922968 23.86573647 8.0609751 26 9 C26.52074981 15.34019857 23.02484711 18.56772689 19.25 23.3125 C18.29867187 24.56643555 18.29867187 24.56643555 17.328125 25.84570312 C16.709375 26.63525391 16.090625 27.42480469 15.453125 28.23828125 C14.88754883 28.96055908 14.32197266 29.68283691 13.73925781 30.42700195 C12 32 12 32 8 32 C7.505 28.535 7.505 28.535 7 25 C3.7 25.66 0.4 26.32 -3 27 C-2.01 28.485 -2.01 28.485 -1 30 C-0.8046875 33.13671875 -0.8046875 33.13671875 -0.875 36.6875 C-0.89304687 37.86699219 -0.91109375 39.04648437 -0.9296875 40.26171875 C-0.95289062 41.16535156 -0.97609375 42.06898437 -1 43 C-0.06800781 43.10570312 0.86398438 43.21140625 1.82421875 43.3203125 C6.49908006 44.32083632 7.31143949 46.15919927 10 50 C11.2062252 53.61867559 11.10816918 56.92506251 11.0625 60.6875 C11.05798828 61.38939453 11.05347656 62.09128906 11.04882812 62.81445312 C11.03706927 64.54300538 11.01913454 66.27151365 11 68 C12.485 68.495 12.485 68.495 14 69 C15.50930882 72.01861764 15.18438844 75.12991303 15.1875 78.4375 C15.19974609 79.11876953 15.21199219 79.80003906 15.22460938 80.50195312 C15.23555848 84.22829809 15.12005619 85.81991571 13 89 C12.34 89 11.68 89 11 89 C11.05220703 90.51980469 11.05220703 90.51980469 11.10546875 92.0703125 C11.13362595 93.4218583 11.16092403 94.77342219 11.1875 96.125 C11.21263672 96.79015625 11.23777344 97.4553125 11.26367188 98.140625 C11.33357308 102.89390723 10.66520247 106.05527685 8 110 C3.06238145 114.10360249 -0.52466042 114.58035416 -6.6640625 114.51757812 C-7.51361511 114.5245874 -8.36316772 114.53159668 -9.23846436 114.53881836 C-12.0343131 114.55635985 -14.82914176 114.54478944 -17.625 114.53125 C-19.57503452 114.53394602 -21.52506773 114.53782936 -23.47509766 114.54284668 C-27.55709666 114.54873652 -31.63874496 114.5401953 -35.72070312 114.52148438 C-40.94633908 114.49869521 -46.17115321 114.51182104 -51.39675903 114.53577423 C-55.42201908 114.55024607 -59.44708511 114.54561984 -63.47235107 114.53526306 C-65.39882505 114.53259961 -67.32531679 114.53585208 -69.25177002 114.54518127 C-71.9469654 114.55536969 -74.64084018 114.53981416 -77.3359375 114.51757812 C-78.12780457 114.52567505 -78.91967163 114.53377197 -79.73553467 114.54211426 C-84.90877978 114.46326455 -87.94051095 113.48463133 -92 110 C-94.55274058 106.59394051 -94.2776915 103.07881772 -94.32226562 98.92407227 C-94.33219543 98.21950897 -94.34212524 97.51494568 -94.35235596 96.78903198 C-94.38149974 94.46478332 -94.39518397 92.14080738 -94.40625 89.81640625 C-94.41775889 88.19742325 -94.42927428 86.5784403 -94.4407959 84.9594574 C-94.46178594 81.5676039 -94.47349149 78.17584482 -94.48046875 74.78393555 C-94.49144853 70.44122995 -94.5395332 66.09977536 -94.59641266 61.7574625 C-94.6336864 58.41424421 -94.64407744 55.07132714 -94.6471405 51.72791862 C-94.65318758 50.12710651 -94.66922532 48.52629933 -94.69551086 46.9256916 C-94.72969538 44.68460227 -94.72586483 42.44656773 -94.71289062 40.20532227 C-94.72018188 38.93165298 -94.72747314 37.6579837 -94.73498535 36.34571838 C-93.70625291 31.66283727 -91.93080107 30.63798522 -88 28 C-85.57470703 27.43237305 -85.57470703 27.43237305 -83.2578125 27.51171875 C-82.41992188 27.52783203 -81.58203125 27.54394531 -80.71875 27.56054688 C-79.8628125 27.60244141 -79.006875 27.64433594 -78.125 27.6875 C-77.24585937 27.71005859 -76.36671875 27.73261719 -75.4609375 27.75585938 C-73.30654993 27.81440252 -71.1530469 27.90407217 -69 28 C-68.90203125 27.27554688 -68.8040625 26.55109375 -68.703125 25.8046875 C-67.35668771 17.09927397 -64.67560098 11.81174647 -57.76953125 6.2578125 C-51.94622204 2.11850662 -44.87732515 2.17714624 -38 3 C-30.56518407 5.2387751 -25.79108 9.27944909 -22 16 C-20.17523498 20.14719323 -19.78510998 23.48730949 -20 28 C-19.34 28 -18.68 28 -18 28 C-17.86464844 27.443125 -17.72929688 26.88625 -17.58984375 26.3125 C-15.41834865 18.61474491 -11.27553094 13.13784618 -4.75 8.5 C-2 7 -2 7 1 7 C0.505 3.535 0.505 3.535 0 0 Z M6 7 C6 8.32 6 9.64 6 11 C5.01 11.020625 4.02 11.04125 3 11.0625 C-2.2467903 11.81812294 -5.53764663 15.20040442 -9 19 C-10.70058384 21.31855557 -11.80598472 23.35240091 -13 26 C-12.67 26.66 -12.34 27.32 -12 28 C-11.45730469 27.65066406 -10.91460937 27.30132812 -10.35546875 26.94140625 C-9.28232422 26.25884766 -9.28232422 26.25884766 -8.1875 25.5625 C-7.47980469 25.11003906 -6.77210937 24.65757813 -6.04296875 24.19140625 C-2.45841916 22.10099014 0.49015772 21.8396128 4.5625 21.8125 C5.53316406 21.79832031 6.50382812 21.78414062 7.50390625 21.76953125 C10 22 10 22 12 24 C14.64 20.37 17.28 16.74 20 13 C18.60399265 10.2079853 16.99583616 9.99837067 14.125 8.875 C13.24070312 8.52179687 12.35640625 8.16859375 11.4453125 7.8046875 C8.95410666 6.84370816 8.95410666 6.84370816 6 7 Z M-58.9375 13.8125 C-62.84491695 18.80782886 -64.23520701 22.64898174 -63.875 29 C-63.30052083 33.54796009 -61.96461552 36.42502246 -59 40 C-58.35224609 40.81597656 -58.35224609 40.81597656 -57.69140625 41.6484375 C-55.34936123 43.51990996 -53.7667059 43.30259893 -50.8125 43.1875 C-49.91144531 43.16042969 -49.01039062 43.13335937 -48.08203125 43.10546875 C-47.39496094 43.07066406 -46.70789063 43.03585938 -46 43 C-46.43603972 39.37647166 -46.43603972 39.37647166 -48.5 36.5 C-50.49901075 34.50098925 -50.62890981 32.74606742 -51 30 C-49.68 30 -48.36 30 -47 30 C-46.67 31.32 -46.34 32.64 -46 34 C-44.68 33.67 -43.36 33.34 -42 33 C-42.71639199 29.71156462 -42.71639199 29.71156462 -46 28.375 C-47.485 27.694375 -47.485 27.694375 -49 27 C-50 26 -50 26 -50.25 22.625 C-50 19 -50 19 -48.625 17.3125 C-48.08875 16.879375 -47.5525 16.44625 -47 16 C-45.82425289 13.90010348 -45.82425289 13.90010348 -45 12 C-44.34 12 -43.68 12 -43 12 C-42.87625 12.86625 -42.87625 12.86625 -42.75 13.75 C-42.1304373 16.1677051 -42.1304373 16.1677051 -40 18 C-37.9180597 20.0819403 -37.40791696 21.14458129 -37 24 C-38.65 24 -40.3 24 -42 24 C-42.33 22.68 -42.66 21.36 -43 20 C-43.99 20 -44.98 20 -46 20 C-46.33 20.99 -46.66 21.98 -47 23 C-44.03 24.98 -41.06 26.96 -38 29 C-38.3125 32.375 -38.3125 32.375 -39 36 C-39.99 36.66 -40.98 37.32 -42 38 C-42.72965366 40.56282742 -42.72965366 40.56282742 -43 43 C-36.33095216 43.85539598 -36.33095216 43.85539598 -30.2265625 41.8046875 C-25.55421953 36.16955871 -24.42738748 31.2771435 -24.55859375 24.11328125 C-25.37354101 18.3653789 -28.27675296 14.28524227 -32.67578125 10.59375 C-41.62010529 4.83648395 -51.84331723 6.12958837 -58.9375 13.8125 Z M-90 36 C-89.99843776 38.59117313 -89.99843776 38.59117313 -89 41 C-85.64880481 43.23413013 -84.5822245 43.23847762 -80.67578125 43.1953125 C-79.64775391 43.18886719 -78.61972656 43.18242188 -77.56054688 43.17578125 C-76.48869141 43.15902344 -75.41683594 43.14226563 -74.3125 43.125 C-72.68731445 43.11146484 -72.68731445 43.11146484 -71.02929688 43.09765625 C-68.35277052 43.07407452 -65.67635759 43.03820336 -63 43 C-64.65 39.7 -66.3 36.4 -68 33 C-71.10468645 32.91916438 -74.20727569 32.85958282 -77.3125 32.8125 C-78.19357422 32.78736328 -79.07464844 32.76222656 -79.98242188 32.73632812 C-80.82998047 32.72666016 -81.67753906 32.71699219 -82.55078125 32.70703125 C-83.33106689 32.6913208 -84.11135254 32.67561035 -84.9152832 32.65942383 C-87.54273824 33.0886661 -88.43214611 33.87978737 -90 36 Z M-21 33 C-21.67154933 34.28913487 -22.33708859 35.58140204 -23 36.875 C-23.37125 37.59429687 -23.7425 38.31359375 -24.125 39.0546875 C-25.13673746 40.94848977 -25.13673746 40.94848977 -25 43 C-18.4 43 -11.8 43 -5 43 C-5 39.7 -5 36.4 -5 33 C-9.80530997 32.42155369 -9.80530997 32.42155369 -11.75 34.6875 C-13.08182447 37.15137528 -13.61629106 39.23729565 -14 42 C-15.32 42 -16.64 42 -18 42 C-18.33 39.03 -18.66 36.06 -19 33 C-19.66 33 -20.32 33 -21 33 Z M-90 46 C-90.069608 53.34545954 -90.12286584 60.69084759 -90.15543652 68.03657055 C-90.17107139 71.44775761 -90.19226914 74.85871849 -90.22631836 78.26977539 C-90.26524491 82.19414534 -90.2797273 86.11842471 -90.29296875 90.04296875 C-90.30845261 91.26396774 -90.32393646 92.48496674 -90.33988953 93.7429657 C-90.34011612 94.8837709 -90.34034271 96.02457611 -90.34057617 97.19995117 C-90.34723801 98.20144699 -90.35389984 99.20294281 -90.36076355 100.23478699 C-89.92113643 103.60448057 -89.15627921 105.36821583 -87 108 C-82.4921634 110.16454792 -78.07777527 110.29186602 -73.16210938 110.2746582 C-72.4003389 110.27976913 -71.63856842 110.28488007 -70.85371399 110.29014587 C-68.35031145 110.3039797 -65.84718608 110.3030901 -63.34375 110.30078125 C-61.59549864 110.30467103 -59.84724823 110.30900629 -58.09899902 110.31376648 C-54.44080537 110.32121491 -50.78270826 110.320947 -47.12451172 110.31567383 C-42.44381369 110.30987497 -37.76351081 110.32682684 -33.08287811 110.3500185 C-29.47456565 110.36476966 -25.86634813 110.36562577 -22.25801086 110.36250877 C-20.53248816 110.36302109 -18.80696002 110.368242 -17.08146667 110.37832069 C-14.66668176 110.39069752 -12.25266383 110.38388687 -9.83789062 110.37231445 C-8.776325 110.38378006 -8.776325 110.38378006 -7.6933136 110.39547729 C-3.07537411 110.34671633 0.0949632 109.46624501 4 107 C6.49118953 103.2632157 6.2065226 101.25548181 6.125 96.8125 C6.10695313 95.54019531 6.08890625 94.26789063 6.0703125 92.95703125 C6.04710938 91.98121094 6.02390625 91.00539062 6 90 C5.2886792 89.9906543 4.5773584 89.98130859 3.84448242 89.97167969 C0.6247794 89.91803112 -2.59346183 89.83437365 -5.8125 89.75 C-6.93205078 89.73582031 -8.05160156 89.72164062 -9.20507812 89.70703125 C-10.81479492 89.65869141 -10.81479492 89.65869141 -12.45703125 89.609375 C-13.44678955 89.58842773 -14.43654785 89.56748047 -15.45629883 89.54589844 C-18 89 -18 89 -19.82592773 87.17114258 C-21.51720609 84.04356129 -21.324188 81.46513936 -21.25 77.9375 C-21.23453125 76.70902344 -21.2190625 75.48054688 -21.203125 74.21484375 C-21 71 -21 71 -20 68 C-11.42 67.67 -2.84 67.34 6 67 C6.0825 64.793125 6.165 62.58625 6.25 60.3125 C6.29640625 59.07113281 6.3428125 57.82976562 6.390625 56.55078125 C5.93571566 52.41565531 4.95604322 50.8656606 2 48 C-1.84773857 46.71742048 -5.49885763 46.82278585 -9.51049805 46.79467773 C-10.37900391 46.78477814 -11.24750977 46.77487854 -12.14233398 46.76467896 C-15.01543443 46.73307056 -17.88855142 46.70830908 -20.76171875 46.68359375 C-22.75283744 46.66302366 -24.74395177 46.64202717 -26.73506165 46.62062073 C-31.97767608 46.56540579 -37.22032988 46.51599392 -42.4630127 46.46777344 C-47.81196602 46.41755423 -53.16086211 46.36187035 -58.50976562 46.30664062 C-69.00646154 46.1990661 -79.50320712 46.09761952 -90 46 Z M-17 72 C-17.08082094 73.95766281 -17.13910778 75.91626728 -17.1875 77.875 C-17.22230469 78.96554688 -17.25710937 80.05609375 -17.29296875 81.1796875 C-17.19628906 82.11039063 -17.09960938 83.04109375 -17 84 C-13.78027718 86.14648188 -12.92347762 86.24848373 -9.21875 86.23046875 C-8.29449219 86.22853516 -7.37023437 86.22660156 -6.41796875 86.22460938 C-5.45503906 86.21236328 -4.49210937 86.20011719 -3.5 86.1875 C-2.53707031 86.18685547 -1.57414062 86.18621094 -0.58203125 86.18554688 C4.79531947 86.18798748 4.79531947 86.18798748 10 85 C10.87109162 82.38672515 11.18879799 80.69288829 11.25 78 C11.27578125 77.319375 11.3015625 76.63875 11.328125 75.9375 C10.88770151 73.33690418 10.07555575 72.6066287 8 71 C5.52025315 70.57065966 5.52025315 70.57065966 2.74609375 70.671875 C1.72708984 70.67703125 0.70808594 70.6821875 -0.34179688 70.6875 C-1.93604492 70.7184375 -1.93604492 70.7184375 -3.5625 70.75 C-4.62919922 70.75515625 -5.69589844 70.7603125 -6.79492188 70.765625 C-12.06558522 70.59236066 -12.06558522 70.59236066 -17 72 Z " fill="#57ef4f" transform="translate(98,7)"/>
<path d="M0 0 C2.875 0.875 2.875 0.875 4.875 2.875 C5.3125 6.3125 5.3125 6.3125 4.875 9.875 C2.75 11.9375 2.75 11.9375 -0.125 12.875 C-3.4375 12.0625 -3.4375 12.0625 -6.125 10.875 C-7.5744382 4.59410112 -7.5744382 4.59410112 -5.5625 1.375 C-3.125 -0.125 -3.125 -0.125 0 0 Z M-2.125 4.875 C-2.125 5.865 -2.125 6.855 -2.125 7.875 C-1.135 7.545 -0.145 7.215 0.875 6.875 C0.545 6.215 0.215 5.555 -0.125 4.875 C-0.785 4.875 -1.445 4.875 -2.125 4.875 Z " fill="#57ef4f" transform="translate(89.125,79.125)"/>
</svg>
