<?xml version="1.0" encoding="UTF-8"?>
<svg version="1.1" xmlns="http://www.w3.org/2000/svg" width="512" height="512">
<path d="M0 0 C4.03984048 2.99269479 8.14641272 6.13439281 9.69921875 11.09765625 C9.87177063 17.98645831 6.93914065 22.5875167 3.25195312 28.23535156 C1.96385317 30.21403384 0.70666948 32.21019293 -0.546875 34.2109375 C-2.54640865 37.39809391 -4.55648128 40.57824335 -6.57421875 43.75390625 C-10.15918434 49.40284671 -13.70663224 55.07490242 -17.25 60.75 C-18.18585938 62.24732666 -18.18585938 62.24732666 -19.140625 63.77490234 C-22.42824446 69.0366062 -25.70870084 74.30264283 -28.98046875 79.57421875 C-29.64328857 80.64003174 -30.3061084 81.70584473 -30.98901367 82.80395508 C-32.24540898 84.82448306 -33.4996431 86.84635729 -34.7512207 88.86987305 C-45.76392886 106.56431088 -45.76392886 106.56431088 -51.5 111.5 C-52.35207031 112.23476563 -53.20414062 112.96953125 -54.08203125 113.7265625 C-57.83427357 116.79611231 -61.64150472 119.79010165 -65.47387695 122.75878906 C-70.43745176 126.61808078 -75.20868611 130.67095811 -79.96118164 134.78564453 C-84.07021971 138.33749541 -88.2550121 141.77112068 -92.515625 145.140625 C-97.03411741 148.72626736 -101.47818708 152.40373694 -105.9375 156.0625 C-107.77060162 157.56278317 -109.60393427 159.06278408 -111.4375 160.5625 C-112.345 161.305 -113.2525 162.0475 -114.1875 162.8125 C-144.4375 187.5625 -144.4375 187.5625 -147.171875 189.796875 C-149.06098985 191.34445497 -150.94624304 192.89675776 -152.828125 194.453125 C-153.77171875 195.23171875 -154.7153125 196.0103125 -155.6875 196.8125 C-156.52796875 197.50859375 -157.3684375 198.2046875 -158.234375 198.921875 C-159.12640625 199.62828125 -160.0184375 200.3346875 -160.9375 201.0625 C-161.85270416 201.92099548 -162.76790833 202.77949097 -163.71084595 203.66400146 C-169.24152777 207.55505167 -175.78612066 206.68987476 -182.26708984 206.57910156 C-183.72147326 206.57281298 -185.17586838 206.56886213 -186.63026428 206.56706238 C-189.75267674 206.5589364 -192.87448494 206.53579106 -195.99671555 206.50125885 C-200.93974586 206.44812726 -205.88231035 206.43756895 -210.82559204 206.43426514 C-224.87852737 206.41815687 -238.93089998 206.34029236 -252.98339844 206.23095703 C-260.75219344 206.17089198 -268.52045555 206.14342073 -276.28948557 206.15002227 C-281.19786066 206.15217576 -286.1036838 206.11379671 -291.01154685 206.04467726 C-294.0725458 206.01099485 -297.13265513 206.01513957 -300.19376945 206.02959633 C-301.60591856 206.0287603 -303.01816021 206.01264454 -304.4299221 205.97956657 C-312.61551974 205.76384925 -312.61551974 205.76384925 -319.83736038 209.13552094 C-322.06367943 211.34384977 -324.0521305 213.56004106 -325.9375 216.0625 C-322.02901881 220.75267742 -317.95793854 225.11316053 -313.57421875 229.36328125 C-311.13537894 231.89525098 -310.6974296 233.75342148 -310.5 237.1875 C-310.7172672 246.35300131 -319.56545275 252.98752782 -325.66015625 259.05078125 C-326.4832579 259.87579636 -327.30635956 260.70081146 -328.15440369 261.55082703 C-329.8840897 263.28186646 -331.6162736 265.01041323 -333.35083008 266.73657227 C-336.00250421 269.37749406 -338.64328507 272.0289729 -341.28320312 274.68164062 C-342.97071293 276.36782949 -344.65884267 278.0533982 -346.34765625 279.73828125 C-347.13423111 280.52890457 -347.92080597 281.31952789 -348.73121643 282.1341095 C-349.84278358 283.23622017 -349.84278358 283.23622017 -350.97680664 284.3605957 C-351.62267227 285.00487015 -352.2685379 285.64914459 -352.93397522 286.3129425 C-357.45018681 290.25667803 -360.88346642 291.6125444 -366.78125 291.42578125 C-370.0015318 290.88323377 -371.73700371 289.4005273 -373.9375 287.0625 C-375.71804048 283.50141904 -375.5305614 279.94050691 -374.9375 276.0625 C-371.6508036 270.20345234 -366.54271573 265.3939222 -361.7890625 260.71875 C-360.80297501 259.73690735 -360.80297501 259.73690735 -359.79696655 258.73522949 C-357.72351329 256.67285267 -355.6431716 254.61759155 -353.5625 252.5625 C-352.14406711 251.15411313 -350.72609402 249.74526302 -349.30859375 248.3359375 C-345.85684876 244.90608627 -342.39891335 241.48259252 -338.9375 238.0625 C-344.00860934 231.9325851 -349.53271219 226.33193412 -355.16552734 220.72094727 C-356.19124489 219.69551227 -357.21674133 218.66985609 -358.24203491 217.64399719 C-361.00795254 214.87779424 -363.77692871 212.1146718 -366.54648924 209.35211682 C-369.44706971 206.45781417 -372.34479308 203.56065382 -375.24282837 200.6638031 C-380.7230146 195.18671717 -386.20574355 189.712184 -391.68940413 184.23857683 C-397.93566505 178.00351754 -404.17906547 171.76559726 -410.4222343 165.5274421 C-423.25748923 152.70262208 -436.09630911 139.88137634 -448.9375 127.0625 C-450.03881557 127.99626675 -451.13865136 128.93177893 -452.23788452 129.86799622 C-452.8505184 130.38876645 -453.46315228 130.90953669 -454.09435081 131.44608784 C-456.98384758 133.98012998 -459.66392771 136.70453973 -462.3515625 139.44921875 C-463.53632588 140.64661545 -464.7212257 141.84387715 -465.90625 143.04101562 C-467.74251029 144.90215015 -469.57710608 146.76487063 -471.40917969 148.63012695 C-473.19804832 150.44925482 -474.99313543 152.26206276 -476.7890625 154.07421875 C-477.33188873 154.63050461 -477.87471497 155.18679047 -478.43399048 155.75993347 C-481.88809728 159.23658824 -485.23921421 162.54964089 -490.21875 163.49609375 C-494.28175818 163.50324693 -496.4054451 163.39503431 -499.9375 161.1875 C-503.15158486 157.77253484 -503.42777859 155.16398539 -503.31944275 150.59379578 C-502.15738999 142.89238179 -493.47315624 136.30539714 -488.21484375 131.07421875 C-487.3917421 130.24920364 -486.56864044 129.42418854 -485.72059631 128.57417297 C-483.9909103 126.84313354 -482.2587264 125.11458677 -480.52416992 123.38842773 C-477.87249579 120.74750594 -475.23171493 118.0960271 -472.59179688 115.44335938 C-470.90428707 113.75717051 -469.21615733 112.0716018 -467.52734375 110.38671875 C-466.74076889 109.59609543 -465.95419403 108.80547211 -465.14378357 107.9908905 C-464.4027388 107.25615005 -463.66169403 106.52140961 -462.89819336 105.7644043 C-462.25232773 105.12012985 -461.6064621 104.47585541 -460.94102478 103.8120575 C-456.65905254 100.07286909 -453.05506249 98.2505779 -447.37911987 98.55988979 C-444.50325891 99.15188902 -443.37502866 100.03668536 -441.23486328 102.01832581 C-440.1957077 102.975433 -440.1957077 102.975433 -439.13555908 103.95187569 C-435.20905859 107.72218718 -431.33318771 111.53686381 -427.4921875 115.39428711 C-426.58393723 116.30239136 -425.67568695 117.21049561 -424.73991394 118.14611816 C-422.27334729 120.61240036 -419.80985494 123.08173206 -417.3469429 125.55166316 C-414.76362224 128.14127643 -412.17742961 130.72801843 -409.59155273 133.31507874 C-404.70594431 138.20378317 -399.82288847 143.09502887 -394.94076633 147.98721462 C-389.37798746 153.56120862 -383.81233575 159.13233035 -378.24645233 164.70322406 C-366.80695691 176.15314466 -355.37103739 187.60662982 -343.9375 199.0625 C-339.99737028 197.25398465 -337.38861239 194.67443595 -334.4375 191.5625 C-327.52909016 184.27761006 -327.52909016 184.27761006 -322.15463352 183.8315134 C-320.53732539 183.84464777 -320.53732539 183.84464777 -318.88734436 183.85804749 C-317.64692383 183.86278076 -316.4065033 183.86751404 -315.12849426 183.87239075 C-313.75631607 183.88756881 -312.38413898 183.9028462 -311.01196289 183.91821289 C-309.56450972 183.92692471 -308.11704999 183.93459931 -306.66958618 183.9413147 C-303.55225294 183.9569253 -300.43501313 183.97778695 -297.31773567 184.00206184 C-292.37811249 184.03836134 -287.43862849 184.0498812 -282.49888611 184.05552673 C-281.24676263 184.05712354 -281.24676263 184.05712354 -279.96934372 184.0587526 C-278.26221536 184.06089206 -276.55508693 184.06297904 -274.84795845 184.06501472 C-263.35102032 184.07984953 -251.85470806 184.11125334 -240.3581543 184.2097168 C-232.59984251 184.2759751 -224.84246788 184.30279812 -217.08387941 184.28516573 C-212.98301935 184.27741811 -208.88439242 184.28929571 -204.7839222 184.34959602 C-184.83423964 185.61713958 -184.83423964 185.61713958 -167.56982422 177.67724609 C-165.96667906 175.85597878 -164.41025973 173.99072919 -162.9375 172.0625 C-160.92166138 170.33096313 -160.92166138 170.33096313 -159.09765625 169.00390625 C-152.53355498 163.96287514 -146.17021011 158.75573913 -139.91308594 153.33886719 C-135.80443644 149.78700814 -131.61975808 146.35369757 -127.359375 142.984375 C-122.84088259 139.39873264 -118.39681292 135.72126306 -113.9375 132.0625 C-112.10439838 130.56221683 -110.27106573 129.06221592 -108.4375 127.5625 C-107.53 126.82 -106.6225 126.0775 -105.6875 125.3125 C-99.27083333 120.0625 -92.85416667 114.8125 -86.4375 109.5625 C-85.53515625 108.82386719 -84.6328125 108.08523438 -83.703125 107.32421875 C-81.8190919 105.78346287 -79.93361588 104.2444701 -78.046875 102.70703125 C-76.63148438 101.55267578 -76.63148438 101.55267578 -75.1875 100.375 C-73.92679687 99.34826172 -73.92679687 99.34826172 -72.640625 98.30078125 C-71.30257812 97.19283203 -71.30257812 97.19283203 -69.9375 96.0625 C-69.39311279 95.65717041 -68.84872559 95.25184082 -68.2878418 94.83422852 C-62.80361164 90.55620957 -59.70030779 85.3425259 -56.25 79.375 C-55.01699748 77.29606038 -53.78260233 75.21794614 -52.546875 73.140625 C-51.63325195 71.5947168 -51.63325195 71.5947168 -50.70117188 70.01757812 C-48.20745203 65.83928562 -45.61507819 61.72805946 -43 57.625 C-42.03088622 56.09918932 -41.06214465 54.57314219 -40.09375 53.046875 C-39.59359375 52.25861328 -39.0934375 51.47035156 -38.578125 50.65820312 C-35.36591711 45.57603135 -32.18440234 40.47462226 -29 35.375 C-28.37295166 34.37090088 -27.74590332 33.36680176 -27.09985352 32.33227539 C-25.92075139 30.4437767 -24.74178844 28.5551911 -23.56298828 26.66650391 C-21.35597555 23.13090796 -19.1468564 19.59663178 -16.9375 16.0625 C-25.79070642 13.8491984 -32.847185 15.0876435 -40.9375 19.0625 C-50.03691523 25.13899276 -57.37826522 32.43384806 -64.80151367 40.38684082 C-77.39730199 53.7692785 -90.56408821 62.80328103 -106.74609375 71.33789062 C-109.98148487 73.08626906 -113.14328674 74.91048079 -116.28125 76.828125 C-117.18037109 77.37758789 -118.07949219 77.92705078 -119.00585938 78.49316406 C-119.64330078 79.01104492 -120.28074219 79.52892578 -120.9375 80.0625 C-121.08596108 83.13320768 -121.08596108 83.13320768 -119.9609375 86.203125 C-116.76516588 98.25435538 -118.32918472 110.62301137 -124.2578125 121.48046875 C-130.78533979 132.12782883 -140.53221522 138.69192239 -152.61339951 141.63598824 C-156.82531043 142.40894516 -161.02681319 142.34540954 -165.29736328 142.33374023 C-166.30326508 142.33896698 -167.30916687 142.34419373 -168.34555054 142.34957886 C-170.51712622 142.35977565 -172.68872604 142.36559168 -174.86032486 142.36746025 C-178.29883388 142.37113762 -181.73705804 142.38790009 -185.17550659 142.40821838 C-194.94719147 142.46351302 -204.71891696 142.49435886 -214.49072266 142.51879883 C-220.47819086 142.53467337 -226.46545402 142.56488445 -232.45281601 142.60356331 C-234.7309438 142.61520664 -237.00910823 142.6211436 -239.28726578 142.62124443 C-242.47053729 142.6214365 -245.65324228 142.63970272 -248.83642578 142.66186523 C-250.24393097 142.65499947 -250.24393097 142.65499947 -251.67987061 142.647995 C-256.81797127 142.70485879 -260.53426347 143.10241822 -264.9375 146.0625 C-266.32939953 148.80193446 -266.32939953 148.80193446 -267 151.9375 C-269.52324646 160.37556306 -269.52324646 160.37556306 -273.9375 163.0625 C-277.41517255 163.73967056 -280.46582512 163.79217879 -283.9375 163.0625 C-286.76174288 160.87227082 -288.35258603 159.23232793 -289.9375 156.0625 C-290.82535097 147.03032375 -289.12189848 139.7416364 -283.8125 132.375 C-278.486674 125.94805385 -272.17302462 121.70659824 -263.9375 120.0625 C-260.51076226 119.78601202 -257.09929712 119.79206762 -253.6628418 119.80712891 C-252.65375763 119.80350845 -251.64467346 119.799888 -250.60501099 119.79615784 C-248.4225066 119.78928591 -246.23998511 119.78675425 -244.05747032 119.78810501 C-240.59693751 119.78907364 -237.13671243 119.77608759 -233.67622375 119.75912476 C-223.84024429 119.71295663 -214.00429705 119.68825393 -204.16821289 119.68164062 C-198.14293593 119.67661357 -192.11798116 119.65230383 -186.09281349 119.61631393 C-183.80403392 119.60654488 -181.51520987 119.60416809 -179.22641563 119.60948563 C-176.01737636 119.61659151 -172.80929105 119.59920095 -169.6003418 119.57666016 C-168.19802559 119.58891884 -168.19802559 119.58891884 -166.76737976 119.60142517 C-159.84569084 119.51542267 -152.71192117 118.27731133 -147.27993298 113.65069008 C-142.63157205 108.36777594 -141.4677947 103.48648397 -141.62109375 96.62890625 C-142.27273038 91.34340913 -144.5148067 87.52471256 -148.1875 83.75 C-155.07780269 79.52185971 -160.91921452 78.63604677 -168.82470703 78.78881836 C-169.78230423 78.79468964 -170.73990143 78.80056091 -171.72651672 78.80661011 C-173.7982479 78.82021068 -175.86994527 78.8401454 -177.94156265 78.86576653 C-181.25232152 78.90298462 -184.56230379 78.91515481 -187.8732605 78.91981506 C-197.28508394 78.93446833 -206.69619383 78.96807673 -216.10742188 79.0793457 C-262.24894992 79.59372725 -262.24894992 79.59372725 -282.09710693 71.64836121 C-294.20478058 66.82761981 -305.44137535 66.85309744 -318.3125 67.3125 C-320.49733119 67.34571204 -322.6822366 67.37435553 -324.8671875 67.3984375 C-351.01750677 67.79991087 -372.76856057 70.46963371 -391.9375 89.875 C-393.76381563 91.76651685 -395.58714479 93.65996466 -397.39453125 95.56958008 C-401.3152811 99.36315371 -404.28808348 99.54053808 -409.48828125 99.45703125 C-413.19735337 98.85955711 -414.76402139 97.00721296 -416.9375 94.0625 C-418.4922669 90.95296621 -418.22394437 88.49983239 -417.9375 85.0625 C-407.53344861 66.88736354 -387.16338438 53.69587124 -367.44921875 48.06640625 C-353.77782712 44.77076513 -340.1897935 44.62181674 -326.19227409 44.46224689 C-322.68598163 44.42185192 -319.18260206 44.36284713 -315.67773438 44.25317383 C-300.42254939 43.78800933 -287.5255036 44.23670885 -273.13671875 50.05078125 C-252.46231281 58.15342781 -230.20475956 56.26310492 -208.35198975 55.97955322 C-199.14341623 55.86817809 -189.93446925 55.83749137 -180.72531319 55.82019424 C-177.54707738 55.8050786 -174.37025456 55.76132325 -171.19236755 55.71334839 C-159.52868899 55.60067643 -150.04609694 56.30154326 -139.30787659 61.28218079 C-136.74835815 62.41266245 -136.74835815 62.41266245 -133.60693359 60.65649414 C-132.33855678 59.90578142 -131.08211426 59.13467137 -129.8359375 58.34765625 C-129.15882721 57.93970322 -128.48171692 57.53175018 -127.78408813 57.11143494 C-125.61608373 55.7995021 -123.46462481 54.46278777 -121.3125 53.125 C-119.88772092 52.25811634 -118.46194789 51.39286407 -117.03515625 50.52929688 C-114.25120913 48.83982284 -111.47992656 47.13208989 -108.71777344 45.40722656 C-106.45696348 43.99550738 -104.18934302 42.62776984 -101.88378906 41.28808594 C-94.1050122 36.67668177 -88.13829479 30.6610979 -81.9375 24.1875 C-60.37368471 1.82733315 -30.49885283 -21.25677621 0 0 Z " fill="#ffffff" transform="translate(502.9375,220.9375)"/>
<path d="M0 0 C2.30582442 0.00315136 4.61034924 -0.02036856 6.91601562 -0.0456543 C20.41256354 -0.10324585 33.44596653 1.8052874 46.44726562 5.50317383 C47.54433838 5.81399902 47.54433838 5.81399902 48.66357422 6.13110352 C88.24214116 17.84750239 122.64926567 45.08368953 142.88476562 81.12817383 C156.00260089 105.30104374 163.0233907 131.25279814 162.94726562 158.75317383 C162.94644989 159.86776978 162.94644989 159.86776978 162.94561768 161.00488281 C162.85345954 188.51666625 156.21245854 222.10641447 138.16992188 244.01879883 C135.11314524 246.50009429 131.39014961 246.53718928 127.57226562 246.31567383 C124.32938514 244.72371432 122.37181535 243.36962574 120.19726562 240.50317383 C118.36998625 234.10769601 120.10701532 229.39759052 123.19726562 223.81567383 C123.93973446 222.39467691 124.67794057 220.97144549 125.41210938 219.54614258 C125.77933105 218.83506348 126.14655273 218.12398437 126.52490234 217.39135742 C141.77673106 187.16500596 143.98283642 150.99165748 133.54345703 118.93286133 C127.09550395 99.96438035 117.7655099 81.08792011 103.20507812 66.97583008 C100.57226562 64.31567383 100.57226562 64.31567383 100.57226562 62.31567383 C99.71568359 61.94442383 99.71568359 61.94442383 98.84179688 61.56567383 C96.21702594 60.12001686 94.41370336 58.39892967 92.25976562 56.31567383 C72.94879802 38.75001233 48.09241676 28.60769925 22.57226562 24.31567383 C21.52683594 24.13004883 20.48140625 23.94442383 19.40429688 23.75317383 C-18.87404059 19.38296608 -55.68903776 31.02708974 -85.68212891 54.82446289 C-87.48059168 56.36082801 -89.12186386 57.98486264 -90.76757812 59.68286133 C-93.42773438 62.31567383 -93.42773438 62.31567383 -95.42773438 62.31567383 C-95.67523438 62.88672852 -95.92273438 63.4577832 -96.17773438 64.04614258 C-97.62339135 66.67091352 -99.34447853 68.47423609 -101.42773438 70.62817383 C-118.99339587 89.93914143 -129.13570896 114.79552269 -133.42773438 140.31567383 C-133.61335938 141.37012695 -133.79898438 142.42458008 -133.99023438 143.51098633 C-137.40497826 173.20706263 -130.42081167 200.79287186 -116.49023438 226.87817383 C-114.46759423 230.87657172 -113.64232383 233.77774622 -114.42773438 238.31567383 C-116.15751295 241.7111651 -117.4956454 243.73626717 -120.74023438 245.75317383 C-125.338413 246.71558331 -128.9492896 246.27957326 -132.90820312 243.69848633 C-135.86973164 240.89766091 -137.52302169 237.94747997 -139.24023438 234.31567383 C-139.57571289 233.6221582 -139.91119141 232.92864258 -140.25683594 232.21411133 C-146.79837736 218.43732083 -152.60576723 204.35832178 -155.42773438 189.31567383 C-155.69154907 187.94209717 -155.69154907 187.94209717 -155.96069336 186.54077148 C-157.53004373 177.53497518 -157.78614803 168.67393589 -157.74023438 159.56567383 C-157.73841156 158.81455322 -157.73658875 158.06343262 -157.73471069 157.28955078 C-157.68993567 146.33469298 -157.20750651 135.96399449 -154.42773438 125.31567383 C-154.08360224 123.87045227 -153.73987 122.42513544 -153.39648438 120.97973633 C-143.24051212 80.08172005 -116.93190126 44.58635805 -81.02539062 22.53442383 C-56.22183467 7.98462098 -28.75643672 -0.08176325 0 0 Z " fill="#ffffff" transform="translate(253.427734375,-0.315673828125)"/>
<path d="M0 0 C2.82424288 2.19022918 4.41508603 3.83017207 6 7 C6.07116382 9.37402501 6.08409085 11.75000677 6.0625 14.125 C6.05347656 15.40632813 6.04445313 16.68765625 6.03515625 18.0078125 C6.02355469 18.99523437 6.01195312 19.98265625 6 21 C7.08796875 20.94199219 8.1759375 20.88398437 9.296875 20.82421875 C21.16583515 20.38543017 30.7618247 21.79674385 40 30 C41.73046875 32.18359375 41.73046875 32.18359375 43.1875 34.4375 C43.92033203 35.54931641 43.92033203 35.54931641 44.66796875 36.68359375 C47.09057913 40.89652031 48.28805052 44.66311722 48.75 49.5 C48.84796875 50.4178125 48.9459375 51.335625 49.046875 52.28125 C48.97358533 56.53205087 47.74473093 59.16499866 44.9375 62.3125 C40.87184609 64.64808841 37.58235695 64.7748349 33 64 C30.125 62.6875 30.125 62.6875 28 60 C26.71318856 56.38827714 25.84405942 52.73553326 25 49 C24.67 48.01 24.34 47.02 24 46 C18.1742108 43.16583228 12.6968145 43.55806787 6 43 C6 56.86 6 70.72 6 85 C11.61 85 17.22 85 23 85 C31.50178473 87.83392824 38.20049076 90.72301118 43.1875 98.4375 C43.92033203 99.54931641 43.92033203 99.54931641 44.66796875 100.68359375 C49.60037208 109.26105761 49.1825158 118.18801895 49.1875 127.8125 C49.19974609 129.04548828 49.21199219 130.27847656 49.22460938 131.54882812 C49.24426754 143.82207531 47.78338681 152.27876668 39.6875 161.6875 C31.79287444 168.4805499 24.51958182 171.35403316 14.125 171.125 C13.34125 171.11597656 12.5575 171.10695312 11.75 171.09765625 C9.83319945 171.07428063 7.91655809 171.03841653 6 171 C6.03480469 171.95261719 6.06960938 172.90523437 6.10546875 173.88671875 C6.13253906 175.14097656 6.15960938 176.39523438 6.1875 177.6875 C6.23970703 179.54955078 6.23970703 179.54955078 6.29296875 181.44921875 C5.97972188 185.2457708 5.30757653 187.01467371 3 190 C-1.2258785 192.81725233 -5.03624688 192.79958384 -10 192 C-12.82424288 189.80977082 -14.41508603 188.16982793 -16 185 C-16.07116382 182.62597499 -16.08409085 180.24999323 -16.0625 177.875 C-16.05347656 176.59367188 -16.04445312 175.31234375 -16.03515625 173.9921875 C-16.02355469 173.00476563 -16.01195312 172.01734375 -16 171 C-17.63195312 171.08701172 -17.63195312 171.08701172 -19.296875 171.17578125 C-31.16583515 171.61456983 -40.7618247 170.20325615 -50 162 C-51.73046875 159.81640625 -51.73046875 159.81640625 -53.1875 157.5625 C-53.67605469 156.82128906 -54.16460937 156.08007812 -54.66796875 155.31640625 C-57.09057913 151.10347969 -58.28805052 147.33688278 -58.75 142.5 C-58.84796875 141.5821875 -58.9459375 140.664375 -59.046875 139.71875 C-58.97358533 135.46794913 -57.74473093 132.83500134 -54.9375 129.6875 C-50.87184609 127.35191159 -47.58235695 127.2251651 -43 128 C-40.125 129.3125 -40.125 129.3125 -38 132 C-36.71318856 135.61172286 -35.84405942 139.26446674 -35 143 C-34.67 143.99 -34.34 144.98 -34 146 C-28.1742108 148.83416772 -22.6968145 148.44193213 -16 149 C-16 135.14 -16 121.28 -16 107 C-21.61 107 -27.22 107 -33 107 C-41.50178473 104.16607176 -48.20049076 101.27698882 -53.1875 93.5625 C-53.67605469 92.82128906 -54.16460937 92.08007812 -54.66796875 91.31640625 C-59.60037208 82.73894239 -59.1825158 73.81198105 -59.1875 64.1875 C-59.19974609 62.95451172 -59.21199219 61.72152344 -59.22460938 60.45117188 C-59.24426754 48.17792469 -57.78338681 39.72123332 -49.6875 30.3125 C-41.79287444 23.5194501 -34.51958182 20.64596684 -24.125 20.875 C-22.949375 20.88853516 -22.949375 20.88853516 -21.75 20.90234375 C-19.83319945 20.92571937 -17.91655809 20.96158347 -16 21 C-16.03480469 20.04738281 -16.06960937 19.09476563 -16.10546875 18.11328125 C-16.13253906 16.85902344 -16.15960938 15.60476562 -16.1875 14.3125 C-16.22230469 13.07113281 -16.25710937 11.82976562 -16.29296875 10.55078125 C-15.97972188 6.7542292 -15.30757653 4.98532629 -13 2 C-8.7741215 -0.81725233 -4.96375312 -0.79958384 0 0 Z M-34 46 C-37.70020209 51.55030313 -37.18279055 57.47142138 -37.1875 63.9375 C-37.19974609 64.81857422 -37.21199219 65.69964844 -37.22460938 66.60742188 C-37.23794543 72.54196807 -37.03106417 77.57582664 -33.0625 82.3125 C-27.71911911 86.68435709 -23.6859298 85 -16 85 C-16 71.14 -16 57.28 -16 43 C-26.18579757 42.32322569 -26.18579757 42.32322569 -34 46 Z M6 107 C6 120.86 6 134.72 6 149 C16.18579757 149.67677431 16.18579757 149.67677431 24 146 C27.70020209 140.44969687 27.18279055 134.52857862 27.1875 128.0625 C27.20586914 126.74088867 27.20586914 126.74088867 27.22460938 125.39257812 C27.23794543 119.45803193 27.03106417 114.42417336 23.0625 109.6875 C17.71911911 105.31564291 13.6859298 107 6 107 Z " fill="#ffffff" transform="translate(261,64)"/>
<path d="M0 0 C7.26 0 14.52 0 22 0 C22 7.26 22 14.52 22 22 C14.74 22 7.48 22 0 22 C0 14.74 0 7.48 0 0 Z " fill="#ffffff" transform="translate(341,149)"/>
<path d="M0 0 C7.26 0 14.52 0 22 0 C22 7.26 22 14.52 22 22 C14.74 22 7.48 22 0 22 C0 14.74 0 7.48 0 0 Z " fill="#ffffff" transform="translate(149,149)"/>
</svg>
