<?xml version="1.0" encoding="UTF-8"?>
<svg version="1.1" xmlns="http://www.w3.org/2000/svg" width="128" height="128">
<path d="M0 0 C3.31133524 0.18244271 6.59795449 0.52175166 9.8984375 0.84375 C13.03535675 1.19019182 13.03535675 1.19019182 16 0 C20.20558645 -0.14256225 24.14935619 -0.02894294 28.3125 0.5625 C31.93624133 1.2578068 31.93624133 1.2578068 35 0 C38.80694616 -0.14929201 42.42620917 0.02216531 46.1875 0.5625 C49.55979557 0.94948474 50.91738701 0.89495216 54 0 C57.82877123 -0.14726043 61.46608873 0.02690962 65.25 0.5625 C68.92654702 1.26005736 68.92654702 1.26005736 72 0 C76.10733382 -0.13923165 79.94110931 -0.05393902 84 0.5625 C86.94811795 0.98866358 89.48736339 0.91543813 92.4375 0.5 C93.613125 0.335 94.78875 0.17 96 0 C97.6518366 1.6518366 97.12604982 3.57787495 97.12698364 5.85227966 C97.13121338 7.42766006 97.13121338 7.42766006 97.13552856 9.03486633 C97.13249222 10.77802376 97.13249222 10.77802376 97.12939453 12.55639648 C97.13202301 14.38059113 97.13202301 14.38059113 97.13470459 16.24163818 C97.13836299 19.58666953 97.13748941 22.93163939 97.1343255 26.27666736 C97.13180113 29.77112078 97.13413971 33.2655715 97.13571167 36.76002502 C97.13753338 42.63046747 97.13512728 48.50089735 97.13037109 54.37133789 C97.124931 61.16448647 97.12668928 67.95760502 97.1321975 74.75075287 C97.13673161 80.57496251 97.13737764 86.39916311 97.13475883 92.22337395 C97.13319738 95.70545924 97.13299866 99.1875304 97.13629532 102.66961479 C97.13971312 106.55115811 97.13497939 110.43266766 97.12939453 114.31420898 C97.13141876 115.4742897 97.13344299 116.63437042 97.13552856 117.8296051 C97.13270874 118.88267853 97.12988892 119.93575195 97.12698364 121.02073669 C97.1264181 122.39871256 97.1264181 122.39871256 97.12584114 123.80452633 C97 126 97 126 96 128 C64.32 128 32.64 128 0 128 C-1.24984206 125.50031587 -1.12583543 123.81843683 -1.12698364 121.02073669 C-1.12980347 119.96766327 -1.13262329 118.91458984 -1.13552856 117.8296051 C-1.13350433 116.66952438 -1.1314801 115.50944366 -1.12939453 114.31420898 C-1.13114685 113.0963269 -1.13289917 111.87844482 -1.13470459 110.62365723 C-1.13835886 107.27875219 -1.13749229 103.93390877 -1.1343255 100.58900714 C-1.13179897 97.09409167 -1.13414021 93.59917888 -1.13571167 90.10426331 C-1.13753226 84.23560105 -1.13512969 78.36695137 -1.13037109 72.49829102 C-1.12492615 65.70453365 -1.12669325 58.91080628 -1.1321975 52.11704963 C-1.13672875 46.29198621 -1.1373792 40.46693184 -1.13475883 34.64186722 C-1.13319645 31.15926977 -1.13300129 27.67668644 -1.13629532 24.19408989 C-1.13970809 20.3148468 -1.13498412 16.43563758 -1.12939453 12.55639648 C-1.13141876 11.39429153 -1.13344299 10.23218658 -1.13552856 9.03486633 C-1.13270874 7.98461273 -1.12988892 6.93435913 -1.12698364 5.85227966 C-1.12660662 4.93400611 -1.12622959 4.01573256 -1.12584114 3.06963253 C-1 1 -1 1 0 0 Z M4 5 C4 44.27 4 83.54 4 124 C33.04 124 62.08 124 92 124 C92 84.73 92 45.46 92 5 C88.7 5.33 85.4 5.66 82 6 C77.4375 5.5 77.4375 5.5 75.23828125 5.1875 C72.06249036 4.92146516 69.0823607 5.34901838 65.9453125 5.84375 C64 6 64 6 61 5 C56.24355914 4.80974237 51.71248332 5.2137917 47.015625 5.87890625 C45 6 45 6 42 5 C38.13259864 4.84530395 34.44961873 5.04764748 30.625 5.5625 C26.67013114 6.05183123 23.19787134 5.7378804 19.26953125 5.1875 C16.11151765 4.92659698 13.16111443 5.34393794 10.04296875 5.84375 C8 6 8 6 4 5 Z " fill="#fff" transform="translate(16,0)"/>
<path d="M0 0 C2.64 1.32 5.28 2.64 8 4 C8 5.32 8 6.64 8 8 C6.35 8 4.7 8 3 8 C3 9.32 3 10.64 3 12 C3.804375 12.598125 4.60875 13.19625 5.4375 13.8125 C8 16 8 16 9.0625 19.4375 C9 23 9 23 7.25 25.9375 C5 28 5 28 2 28 C2 28.66 2 29.32 2 30 C1.01 30 0.02 30 -1 30 C-1 29.34 -1 28.68 -1 28 C-1.94875 27.9175 -2.8975 27.835 -3.875 27.75 C-7 27 -7 27 -8.4375 25.0625 C-9 23 -9 23 -8 21 C-6.02 21.33 -4.04 21.66 -2 22 C-1.67 20.35 -1.34 18.7 -1 17 C-1.78375 16.731875 -2.5675 16.46375 -3.375 16.1875 C-6 15 -6 15 -8 12 C-8.0625 8.625 -8.0625 8.625 -7 5 C-4.80925413 2.89835145 -2.63164275 1.57898565 0 0 Z M-2 8 C-1 11 -1 11 -1 11 Z M2 19 C3 22 3 22 3 22 Z " fill="#fff" transform="translate(93,85)"/>
<path d="M0 0 C0.84827362 0.00444122 1.69654724 0.00888245 2.57052612 0.01345825 C3.53137115 0.01360931 4.49221619 0.01376038 5.48217773 0.01391602 C6.52179657 0.02423859 7.56141541 0.03456116 8.63253784 0.04519653 C9.6951181 0.04802643 10.75769836 0.05085632 11.85247803 0.05377197 C15.25584033 0.06499264 18.6589422 0.09010066 22.06222534 0.11550903 C24.36560697 0.12553639 26.6689927 0.13466266 28.97238159 0.14285278 C34.6274188 0.1649381 40.28230347 0.19843415 45.93722534 0.24050903 C46.49972534 2.17800903 46.49972534 2.17800903 46.93722534 4.24050903 C45.93722534 5.24050903 45.93722534 5.24050903 43.95674133 5.36076355 C43.08848221 5.35854294 42.22022308 5.35632233 41.32565308 5.35403442 C40.34471176 5.35395889 39.36377045 5.35388336 38.35310364 5.35380554 C37.28644974 5.34864426 36.21979584 5.34348297 35.12081909 5.33816528 C33.49153221 5.33604286 33.49153221 5.33604286 31.82933044 5.33387756 C28.34443459 5.32825951 24.85960192 5.31570396 21.37472534 5.30300903 C19.01860647 5.29799636 16.66248661 5.29343305 14.30636597 5.28933716 C8.5166307 5.27828422 2.72693253 5.26152854 -3.06277466 5.24050903 C-3.39277466 4.25050903 -3.72277466 3.26050903 -4.06277466 2.24050903 C-2.06277466 0.24050903 -2.06277466 0.24050903 0 0 Z " fill="#fff" transform="translate(28.062774658203125,92.75949096679688)"/>
<path d="M0 0 C16.17 0 32.34 0 49 0 C49.495 1.98 49.495 1.98 50 4 C47.62307876 5.18846062 46.14271078 5.139166 43.49023438 5.16113281 C42.55586548 5.17074036 41.62149658 5.1803479 40.65881348 5.19024658 C39.64734253 5.19449646 38.63587158 5.19874634 37.59375 5.203125 C36.55810913 5.20882507 35.52246826 5.21452515 34.45544434 5.22039795 C32.26311263 5.22985371 30.07076668 5.23638421 27.87841797 5.24023438 C24.51374792 5.24996026 21.14968335 5.28098679 17.78515625 5.3125 C15.65885781 5.31902779 13.53255498 5.32427914 11.40625 5.328125 C10.39477905 5.3404718 9.38330811 5.3528186 8.34118652 5.36553955 C7.40681763 5.36253845 6.47244873 5.35953735 5.50976562 5.35644531 C4.27305115 5.36191376 4.27305115 5.36191376 3.01135254 5.36749268 C2.3476062 5.24622009 1.68385986 5.12494751 1 5 C0.34 4.01 -0.32 3.02 -1 2 C-0.67 1.34 -0.34 0.68 0 0 Z " fill="#fff" transform="translate(25,104)"/>
<path d="M0 0 C16.17 0 32.34 0 49 0 C49.495 1.98 49.495 1.98 50 4 C47.62307876 5.18846062 46.14271078 5.139166 43.49023438 5.16113281 C42.55586548 5.17074036 41.62149658 5.1803479 40.65881348 5.19024658 C39.64734253 5.19449646 38.63587158 5.19874634 37.59375 5.203125 C36.55810913 5.20882507 35.52246826 5.21452515 34.45544434 5.22039795 C32.26311263 5.22985371 30.07076668 5.23638421 27.87841797 5.24023438 C24.51374792 5.24996026 21.14968335 5.28098679 17.78515625 5.3125 C15.65885781 5.31902779 13.53255498 5.32427914 11.40625 5.328125 C10.39477905 5.3404718 9.38330811 5.3528186 8.34118652 5.36553955 C7.40681763 5.36253845 6.47244873 5.35953735 5.50976562 5.35644531 C4.27305115 5.36191376 4.27305115 5.36191376 3.01135254 5.36749268 C2.3476062 5.24622009 1.68385986 5.12494751 1 5 C0.34 4.01 -0.32 3.02 -1 2 C-0.67 1.34 -0.34 0.68 0 0 Z " fill="#fff" transform="translate(25,64)"/>
<path d="M0 0 C16.17 0 32.34 0 49 0 C49.495 1.98 49.495 1.98 50 4 C47.62307876 5.18846062 46.14271078 5.139166 43.49023438 5.16113281 C42.55586548 5.17074036 41.62149658 5.1803479 40.65881348 5.19024658 C39.64734253 5.19449646 38.63587158 5.19874634 37.59375 5.203125 C36.55810913 5.20882507 35.52246826 5.21452515 34.45544434 5.22039795 C32.26311263 5.22985371 30.07076668 5.23638421 27.87841797 5.24023438 C24.51374792 5.24996026 21.14968335 5.28098679 17.78515625 5.3125 C15.65885781 5.31902779 13.53255498 5.32427914 11.40625 5.328125 C10.39477905 5.3404718 9.38330811 5.3528186 8.34118652 5.36553955 C7.40681763 5.36253845 6.47244873 5.35953735 5.50976562 5.35644531 C4.27305115 5.36191376 4.27305115 5.36191376 3.01135254 5.36749268 C2.3476062 5.24622009 1.68385986 5.12494751 1 5 C0.34 4.01 -0.32 3.02 -1 2 C-0.67 1.34 -0.34 0.68 0 0 Z " fill="#fff" transform="translate(25,40)"/>
<path d="M0 0 C16.17 0 32.34 0 49 0 C49 1.32 49 2.64 49 4 C32.83 4 16.66 4 0 4 C0 2.68 0 1.36 0 0 Z " fill="#fff" transform="translate(25,75)"/>
<path d="M0 0 C16.17 0 32.34 0 49 0 C49 1.32 49 2.64 49 4 C32.83 4 16.66 4 0 4 C0 2.68 0 1.36 0 0 Z " fill="#fff" transform="translate(25,51)"/>
<path d="M0 0 C6.8359375 -0.1953125 6.8359375 -0.1953125 9 0 C11 2 11 2 11.125 4.375 C11.08375 5.24125 11.0425 6.1075 11 7 C11 8.32 11 9.64 11 11 C11 12.32 11 13.64 11 15 C9.68 15 8.36 15 7 15 C6.34 13.68 5.68 12.36 5 11 C4.67 12.32 4.34 13.64 4 15 C2.68 15 1.36 15 0 15 C0 10.05 0 5.1 0 0 Z M4 3 C4 3.99 4 4.98 4 6 C4.99 6 5.98 6 7 6 C6.67 5.01 6.34 4.02 6 3 C5.34 3 4.68 3 4 3 Z " fill="#fff" transform="translate(26,14)"/>
<path d="M0 0 C3.63 0 7.26 0 11 0 C11 0.99 11 1.98 11 3 C8.69 3 6.38 3 4 3 C4 3.99 4 4.98 4 6 C5.32 6 6.64 6 8 6 C8 6.99 8 7.98 8 9 C6.68 9 5.36 9 4 9 C4 9.66 4 10.32 4 11 C5.98 11 7.96 11 10 11 C10 12.32 10 13.64 10 15 C8.52093108 15.02689216 7.04172517 15.04634621 5.5625 15.0625 C4.32693359 15.07990234 4.32693359 15.07990234 3.06640625 15.09765625 C1 15 1 15 0 14 C-0.07271741 11.64686445 -0.08370868 9.29166332 -0.0625 6.9375 C-0.05347656 5.64714844 -0.04445312 4.35679688 -0.03515625 3.02734375 C-0.02355469 2.02832031 -0.01195312 1.02929688 0 0 Z " fill="#fff" transform="translate(62,14)"/>
<path d="M0 0 C1.670625 0.061875 1.670625 0.061875 3.375 0.125 C4.035 1.775 4.695 3.425 5.375 5.125 C3.5 5.75 3.5 5.75 1.375 6.125 C0.715 5.465 0.055 4.805 -0.625 4.125 C-0.955 6.435 -1.285 8.745 -1.625 11.125 C-0.635 11.125 0.355 11.125 1.375 11.125 C1.375 10.465 1.375 9.805 1.375 9.125 C2.695 9.125 4.015 9.125 5.375 9.125 C4.5 14 4.5 14 3.375 15.125 C-0.0625 15.3125 -0.0625 15.3125 -3.625 15.125 C-5.625 13.125 -5.625 13.125 -5.890625 10.59375 C-5.88546875 9.6140625 -5.8803125 8.634375 -5.875 7.625 C-5.88015625 6.6453125 -5.8853125 5.665625 -5.890625 4.65625 C-5.44361757 0.3965321 -4.1561511 0.14331556 0 0 Z " fill="#fff" transform="translate(55.625,13.875)"/>
<path d="M0 0 C6.8359375 -0.1953125 6.8359375 -0.1953125 9 0 C11 2 11 2 11.3125 5 C11.1578125 6.485 11.1578125 6.485 11 8 C8 10 8 10 4 10 C4 11.65 4 13.3 4 15 C2.68 14.67 1.36 14.34 0 14 C0 9.38 0 4.76 0 0 Z M4 3 C4 4.32 4 5.64 4 7 C4.99 6.67 5.98 6.34 7 6 C6.67 5.01 6.34 4.02 6 3 C5.34 3 4.68 3 4 3 Z " fill="#fff" transform="translate(80,14)"/>
<path d="M0 0 C3.3 0 6.6 0 10 0 C10 0.99 10 1.98 10 3 C8.02 3 6.04 3 4 3 C4 3.99 4 4.98 4 6 C5.32 6 6.64 6 8 6 C7.67 6.99 7.34 7.98 7 9 C6.01 9 5.02 9 4 9 C4 9.66 4 10.32 4 11 C5.65 11 7.3 11 9 11 C9.33 12.32 9.66 13.64 10 15 C6.7 15 3.4 15 0 15 C0 10.05 0 5.1 0 0 Z " fill="#fff" transform="translate(39,14)"/>
<path d="M0 0 C5.61 0 11.22 0 17 0 C17.33 1.32 17.66 2.64 18 4 C14.93466836 5.53266582 11.73245728 5.10276471 8.375 5.0625 C7.66859375 5.05798828 6.9621875 5.05347656 6.234375 5.04882812 C4.48954725 5.03703875 2.744763 5.01910324 1 5 C0.67 3.35 0.34 1.7 0 0 Z " fill="#fff" transform="translate(84,64)"/>
<path d="M0 0 C5.61 0 11.22 0 17 0 C17.33 1.32 17.66 2.64 18 4 C14.93466836 5.53266582 11.73245728 5.10276471 8.375 5.0625 C7.66859375 5.05798828 6.9621875 5.05347656 6.234375 5.04882812 C4.48954725 5.03703875 2.744763 5.01910324 1 5 C0.67 3.35 0.34 1.7 0 0 Z " fill="#fff" transform="translate(84,40)"/>
<path d="M0 0 C3.63 0 7.26 0 11 0 C11 0.99 11 1.98 11 3 C9.68 3 8.36 3 7 3 C7 6.96 7 10.92 7 15 C5.68 14.67 4.36 14.34 3 14 C3 10.37 3 6.74 3 3 C2.01 3 1.02 3 0 3 C0 2.01 0 1.02 0 0 Z " fill="#fff" transform="translate(92,14)"/>
<path d="M0 0 C5.94 0 11.88 0 18 0 C18 1.32 18 2.64 18 4 C12.06 4 6.12 4 0 4 C0 2.68 0 1.36 0 0 Z " fill="#fff" transform="translate(84,51)"/>
<path d="M0 0 C5.61 0 11.22 0 17 0 C17.33 1.32 17.66 2.64 18 4 C12.06 4 6.12 4 0 4 C0 2.68 0 1.36 0 0 Z " fill="#fff" transform="translate(84,75)"/>
<path d="M0 0 C1.32 0 2.64 0 4 0 C4 4.95 4 9.9 4 15 C2.68 15 1.36 15 0 15 C0 10.05 0 5.1 0 0 Z " fill="#fff" transform="translate(74,14)"/>
</svg>
